<?xml version="1.0" encoding="iso-8859-1"?>
<!-- Generator: Adobe Illustrator 19.1.0, SVG Export Plug-In . SVG Version: 6.00 Build 0)  -->
<svg xmlns="http://www.w3.org/2000/svg" xmlns:xlink="http://www.w3.org/1999/xlink" version="1.1" id="Capa_1" x="0px" y="0px" viewBox="0 0 535.578 535.578" style="enable-background:new 0 0 535.578 535.578;" xml:space="preserve" width="512px" height="512px">
<g>
	<g>
		<g>
			<path d="M419.777,282.264h-45.034c0,59.069-47.885,106.954-106.955,106.954c-59.069,0-106.954-47.886-106.954-106.954h-45.034     c0,76.567,56.622,139.9,130.277,150.438v94.982c0,4.359,4.32,7.894,9.65,7.894h24.125c5.33,0,9.65-3.535,9.65-7.894v-94.982     C363.155,422.164,419.777,358.831,419.777,282.264z" fill="#D80027"/>
			<path d="M361.878,94.088C361.878,42.125,319.753,0,267.789,0c-51.962,0-94.087,42.125-94.087,94.088     c0,43.003,0,137.936,0,180.938c0,51.963,42.125,94.088,94.088,94.088s94.088-42.125,94.088-94.088     C361.878,232.024,361.878,137.091,361.878,94.088z" fill="#D80027"/>
		</g>
	</g>
	<g>
	</g>
	<g>
	</g>
	<g>
	</g>
	<g>
	</g>
	<g>
	</g>
	<g>
	</g>
	<g>
	</g>
	<g>
	</g>
	<g>
	</g>
	<g>
	</g>
	<g>
	</g>
	<g>
	</g>
	<g>
	</g>
	<g>
	</g>
	<g>
	</g>
</g>
<g>
</g>
<g>
</g>
<g>
</g>
<g>
</g>
<g>
</g>
<g>
</g>
<g>
</g>
<g>
</g>
<g>
</g>
<g>
</g>
<g>
</g>
<g>
</g>
<g>
</g>
<g>
</g>
<g>
</g>
</svg>
