<?xml version="1.0" encoding="iso-8859-1"?>
<!-- Generator: Adobe Illustrator 19.0.0, SVG Export Plug-In . SVG Version: 6.00 Build 0)  -->
<svg version="1.1" id="Layer_1" xmlns="http://www.w3.org/2000/svg" xmlns:xlink="http://www.w3.org/1999/xlink" x="0px" y="0px"
	 viewBox="0 0 512 512" style="enable-background:new 0 0 512 512;" xml:space="preserve">
<g transform="translate(1 1)">
	<path style="fill:#D0E8F9;" d="M67.267,476.867L67.267,476.867c-33.28,0-59.733-26.453-59.733-59.733S33.987,357.4,67.267,357.4
		S127,383.853,127,417.133S100.547,476.867,67.267,476.867L67.267,476.867z"/>
	<path style="fill:#0096E6;" d="M67.267,485.4C29.72,485.4-1,454.68-1,417.133s30.72-68.267,68.267-68.267
		s68.267,30.72,68.267,68.267S104.813,485.4,67.267,485.4z M67.267,365.933c-28.16,0-51.2,23.04-51.2,51.2
		c0,28.16,23.04,51.2,51.2,51.2s51.2-23.04,51.2-51.2C118.467,388.973,95.427,365.933,67.267,365.933z"/>
	<path style="fill:#D0E8F9;" d="M442.733,476.867L442.733,476.867c-33.28,0-59.733-26.453-59.733-59.733
		s26.453-59.733,59.733-59.733s59.733,26.453,59.733,59.733S476.013,476.867,442.733,476.867L442.733,476.867z"/>
	<path style="fill:#0096E6;" d="M442.733,485.4c-37.547,0-68.267-30.72-68.267-68.267s30.72-68.267,68.267-68.267
		S511,379.587,511,417.133S480.28,485.4,442.733,485.4z M442.733,365.933c-28.16,0-51.2,23.04-51.2,51.2
		c0,28.16,23.04,51.2,51.2,51.2c28.16,0,51.2-23.04,51.2-51.2C493.933,388.973,470.893,365.933,442.733,365.933z"/>
	<path style="fill:#D0E8F9;" d="M255,476.867L255,476.867c-33.28,0-59.733-26.453-59.733-59.733S221.72,357.4,255,357.4
		s59.733,26.453,59.733,59.733S288.28,476.867,255,476.867L255,476.867z"/>
	<path style="fill:#0096E6;" d="M255,485.4c-37.547,0-68.267-30.72-68.267-68.267s30.72-68.267,68.267-68.267
		s68.267,30.72,68.267,68.267S292.547,485.4,255,485.4z M255,365.933c-28.16,0-51.2,23.04-51.2,51.2c0,28.16,23.04,51.2,51.2,51.2
		s51.2-23.04,51.2-51.2C306.2,388.973,283.16,365.933,255,365.933z"/>
	<path style="fill:#D0E8F9;" d="M255,152.6L255,152.6c-33.28,0-59.733-26.453-59.733-59.733S221.72,33.133,255,33.133
		s59.733,26.453,59.733,59.733S288.28,152.6,255,152.6L255,152.6z"/>
	<g>
		<path style="fill:#0096E6;" d="M255,161.133c-37.547,0-68.267-30.72-68.267-68.267S217.453,24.6,255,24.6
			s68.267,30.72,68.267,68.267S292.547,161.133,255,161.133z M255,41.667c-28.16,0-51.2,23.04-51.2,51.2s23.04,51.2,51.2,51.2
			s51.2-23.04,51.2-51.2S283.16,41.667,255,41.667z"/>
		<polygon style="fill:#0096E6;" points="451.267,357.4 434.2,357.4 434.2,263.533 263.533,263.533 263.533,357.4 246.467,357.4 
			246.467,263.533 75.8,263.533 75.8,357.4 58.733,357.4 58.733,246.467 246.467,246.467 246.467,152.6 263.533,152.6 
			263.533,246.467 451.267,246.467 		"/>
	</g>
</g>
<g>
</g>
<g>
</g>
<g>
</g>
<g>
</g>
<g>
</g>
<g>
</g>
<g>
</g>
<g>
</g>
<g>
</g>
<g>
</g>
<g>
</g>
<g>
</g>
<g>
</g>
<g>
</g>
<g>
</g>
</svg>
