<?xml version="1.0" encoding="iso-8859-1"?>
<!-- Generator: Adobe Illustrator 18.0.0, SVG Export Plug-In . SVG Version: 6.00 Build 0)  -->
<!DOCTYPE svg PUBLIC "-//W3C//DTD SVG 1.1//EN" "http://www.w3.org/Graphics/SVG/1.1/DTD/svg11.dtd">
<svg version="1.1" id="Capa_1" xmlns="http://www.w3.org/2000/svg" xmlns:xlink="http://www.w3.org/1999/xlink" x="0px" y="0px"
	 viewBox="0 0 59 59" style="enable-background:new 0 0 59 59;" xml:space="preserve">
<g>
	<path d="M51.179,39.929l-5.596,8.04l-3.949-3.241c-0.426-0.352-1.057-0.287-1.407,0.138c-0.351,0.427-0.289,1.058,0.139,1.407
		l4.786,3.929c0.18,0.148,0.404,0.228,0.634,0.228c0.045,0,0.091-0.003,0.137-0.01c0.276-0.038,0.524-0.19,0.684-0.419l6.214-8.929
		c0.315-0.453,0.204-1.076-0.25-1.392C52.116,39.36,51.494,39.475,51.179,39.929z"/>
	<path d="M46,32.5c-7.168,0-13,5.832-13,13s5.832,13,13,13s13-5.832,13-13S53.168,32.5,46,32.5z M46,56.5c-6.065,0-11-4.935-11-11
		s4.935-11,11-11s11,4.935,11,11S52.065,56.5,46,56.5z"/>
	<path d="M52,5.5c0-0.552-0.448-1-1-1h-5v-3c0-0.553-0.448-1-1-1h-7c-0.552,0-1,0.447-1,1v3H15v-3c0-0.553-0.448-1-1-1H7
		c-0.552,0-1,0.447-1,1v3H1c-0.552,0-1,0.448-1,1v9h52V5.5z M13,5.5v3H8v-3v-3h5V5.5z M44,5.5v3h-5v-3v-3h5V5.5z"/>
	<path d="M30,45.5c0-6.882,4.376-12.746,10.485-15H37v-8h8v7.051c0.332-0.021,0.662-0.051,1-0.051c2.122,0,4.145,0.424,6,1.178V17.5
		c0-0.553-0.448-1-1-1H1c-0.552,0-1,0.447-1,1v39c0,0.553,0.448,1,1,1h34.453C32.118,54.566,30,50.28,30,45.5z M15,50.5H7v-8h8V50.5
		z M15,40.5H7v-8h8V40.5z M15,30.5H7v-8h8V30.5z M25,50.5h-7h-1v-8h8V50.5z M25,40.5h-8v-8h8V40.5z M25,30.5h-8v-8h1h7V30.5z
		 M27,22.5h7h1v8h-8V22.5z"/>
</g>
<g>
</g>
<g>
</g>
<g>
</g>
<g>
</g>
<g>
</g>
<g>
</g>
<g>
</g>
<g>
</g>
<g>
</g>
<g>
</g>
<g>
</g>
<g>
</g>
<g>
</g>
<g>
</g>
<g>
</g>
</svg>
