<?xml version="1.0" encoding="utf-8"?>
<!-- Generator: Adobe Illustrator 16.0.0, SVG Export Plug-In . SVG Version: 6.00 Build 0)  -->
<!DOCTYPE svg PUBLIC "-//W3C//DTD SVG 1.1//EN" "http://www.w3.org/Graphics/SVG/1.1/DTD/svg11.dtd">
<svg version="1.1" id="Layer_1" xmlns="http://www.w3.org/2000/svg" xmlns:xlink="http://www.w3.org/1999/xlink" x="0px" y="0px"
	 width="512px" height="512px" viewBox="0 0 512 512" enable-background="new 0 0 512 512" xml:space="preserve">
<g>
	<path d="M182.513,323.033c-10.276-10.276-26.918-10.276-37.176,0l-42.872,42.885l-42.872-42.885
		c-10.258-10.276-26.887-10.276-37.145,0c-10.293,10.258-10.293,26.9,0,37.162l42.872,42.902L22.449,445.97
		c-10.293,10.271-10.293,26.901,0,37.177c5.113,5.113,11.834,7.688,18.555,7.688c6.738,0,13.459-2.574,18.59-7.688l42.872-42.903
		l42.872,42.903c5.126,5.113,11.865,7.688,18.586,7.688c6.725,0,13.445-2.574,18.59-7.688c10.262-10.275,10.262-26.905,0-37.177
		l-42.903-42.872l42.903-42.902C192.775,349.934,192.775,333.291,182.513,323.033z"/>
	<path d="M448.89,224.842H278.098V54.068c0-14.508-11.758-26.274-26.278-26.274c-14.502,0-26.273,11.767-26.273,26.274v170.773
		H54.771c-14.525,0-26.278,11.789-26.278,26.292c0,14.489,11.753,26.261,26.278,26.261h170.774v170.778
		c0,14.521,11.771,26.273,26.273,26.273c14.521,0,26.278-11.753,26.278-26.273V277.395H448.89c14.503,0,26.261-11.771,26.261-26.261
		C475.15,236.631,463.393,224.842,448.89,224.842z"/>
	<path d="M486.953,26.572c-11.498-8.799-28.015-6.645-36.827,4.902l-83.845,109.523l-30.698-23.028
		c-11.592-8.682-28.06-6.366-36.791,5.274c-8.7,11.597-6.354,28.064,5.256,36.777l51.526,38.627
		c4.724,3.556,10.258,5.244,15.743,5.244c7.911,0,15.707-3.573,20.887-10.294l99.637-130.173
		C500.685,51.896,498.496,35.396,486.953,26.572z"/>
</g>
</svg>
