<?xml version="1.0" encoding="iso-8859-1"?>
<!-- Generator: Adobe Illustrator 19.0.0, SVG Export Plug-In . SVG Version: 6.00 Build 0)  -->
<svg xmlns="http://www.w3.org/2000/svg" xmlns:xlink="http://www.w3.org/1999/xlink" version="1.1" id="Capa_1" x="0px" y="0px" viewBox="0 0 469.333 469.333" style="enable-background:new 0 0 469.333 469.333;" xml:space="preserve" width="512px" height="512px">
<g>
	<g>
		<g>
			<path d="M419.575,84.687C370.233,30.073,304.571,0,234.661,0c-69.9,0-135.561,30.073-184.903,84.698     c-9.456,10.469-9.456,26.885,0,37.354l36.345,40.24c9.498,10.5,27.129,10.51,36.647-0.01     c11.935-13.229,25.525-24.135,40.271-32.354c8.446-4.583,13.695-13.74,13.58-22.365l5.207-35.771     c38.345-12.656,67.713-12.635,105.724-0.021l5.082,34.25c0,9.969,5.113,19.115,13.486,23.958     c14.851,8.281,28.441,19.188,40.396,32.427c4.749,5.25,11.424,8.26,18.318,8.26c6.884,0,13.559-3.01,18.318-8.271l36.439-40.344     C429.031,111.583,429.031,95.167,419.575,84.687z" fill="#91DC5A"/>
			<circle cx="234.667" cy="192.213" r="21.333" fill="#91DC5A"/>
			<circle cx="149.333" cy="192.213" r="21.333" fill="#91DC5A"/>
			<circle cx="320" cy="192.213" r="21.333" fill="#91DC5A"/>
			<circle cx="234.667" cy="277.547" r="21.333" fill="#91DC5A"/>
			<circle cx="149.333" cy="277.547" r="21.333" fill="#91DC5A"/>
			<circle cx="320" cy="277.547" r="21.333" fill="#91DC5A"/>
			<circle cx="234.667" cy="362.667" r="21.333" fill="#91DC5A"/>
			<circle cx="149.333" cy="362.667" r="21.333" fill="#91DC5A"/>
			<circle cx="320" cy="362.667" r="21.333" fill="#91DC5A"/>
			<circle cx="234.667" cy="448" r="21.333" fill="#91DC5A"/>
		</g>
	</g>
</g>
<g>
</g>
<g>
</g>
<g>
</g>
<g>
</g>
<g>
</g>
<g>
</g>
<g>
</g>
<g>
</g>
<g>
</g>
<g>
</g>
<g>
</g>
<g>
</g>
<g>
</g>
<g>
</g>
<g>
</g>
</svg>
