<?xml version="1.0" encoding="iso-8859-1"?>
<!-- Generator: Adobe Illustrator 19.0.0, SVG Export Plug-In . SVG Version: 6.00 Build 0)  -->
<svg xmlns="http://www.w3.org/2000/svg" xmlns:xlink="http://www.w3.org/1999/xlink" version="1.1" id="Layer_1" x="0px" y="0px" viewBox="0 0 512 512" style="enable-background:new 0 0 512 512;" xml:space="preserve" width="512px" height="512px">
<g>
	<g>
		<g>
			<path d="M17.698,88.688l175.719,142.958c0.583,0.479,1.219,0.896,1.885,1.229c2.344,1.198,4.823,1.802,7.385,1.802     c2.708,0,5.417-0.708,9.375-3.104L387.646,88.698c2.604-2.115,4.052-5.323,3.927-8.667s-1.813-6.438-4.563-8.354     C379.813,66.656,371.385,64,362.667,64h-320c-8.719,0-17.135,2.646-24.333,7.667c-2.75,1.906-4.438,5-4.563,8.354     C13.646,83.365,15.094,86.573,17.698,88.688z" fill="#91DC5A"/>
			<circle cx="320" cy="362.667" r="21.333" fill="#91DC5A"/>
			<path d="M480,277.333H266.667c-17.646,0-32,14.354-32,32V416c0,17.646,14.354,32,32,32H480c17.646,0,32-14.354,32-32V309.333     C512,291.688,497.646,277.333,480,277.333z M426.667,405.333H320c-23.531,0-42.667-19.135-42.667-42.667S296.469,320,320,320     s42.667,19.135,42.667,42.667c0,7.806-2.259,15.033-5.934,21.333h33.201c-3.674-6.301-5.934-13.527-5.934-21.333     C384,339.135,403.135,320,426.667,320s42.667,19.135,42.667,42.667S450.198,405.333,426.667,405.333z" fill="#91DC5A"/>
			<circle cx="426.667" cy="362.667" r="21.333" fill="#91DC5A"/>
			<path d="M266.667,256h128c5.896,0,10.667-4.771,10.667-10.667V124.24c0-4.115-2.365-7.865-6.083-9.635     c-3.719-1.75-8.115-1.229-11.313,1.365l-159.24,129.583c-1.438,1.169-6.349,4.624-7.906,5.49     c-13.146,7.24-26.656,6.719-39.688-1.885L17.396,115.958c-3.177-2.583-7.573-3.104-11.313-1.365     C2.365,116.365,0,120.115,0,124.229V320c0,23.531,19.135,42.667,42.667,42.667h160c5.896,0,10.667-4.771,10.667-10.667v-42.667     c0-15.615,7.083-30.469,19.438-40.76c1.367-1.138,6.319-4.57,7.906-5.469C249.021,258.396,257.76,256,266.667,256z" fill="#91DC5A"/>
		</g>
	</g>
</g>
<g>
</g>
<g>
</g>
<g>
</g>
<g>
</g>
<g>
</g>
<g>
</g>
<g>
</g>
<g>
</g>
<g>
</g>
<g>
</g>
<g>
</g>
<g>
</g>
<g>
</g>
<g>
</g>
<g>
</g>
</svg>
