<?xml version="1.0" encoding="iso-8859-1"?>
<!-- Generator: Adobe Illustrator 19.0.0, SVG Export Plug-In . SVG Version: 6.00 Build 0)  -->
<svg version="1.1" id="Layer_1" xmlns="http://www.w3.org/2000/svg" xmlns:xlink="http://www.w3.org/1999/xlink" x="0px" y="0px"
	 viewBox="0 0 496 496" style="enable-background:new 0 0 496 496;" xml:space="preserve">
<path style="fill:#F9BA48;" d="M296,280H112v-96h184V280z"/>
<g>
	<path style="fill:#333333;" d="M472,112h-93.008l-9.528-90.504C368.168,9.24,357.904,0,345.592,0H230.408
		c-12.312,0-22.576,9.24-23.864,21.496L197.008,112H104c-9.768,0-18.152,5.88-21.896,14.272C73.4,117.472,61.328,112,48,112
		c-26.472,0-48,21.528-48,48v160c0,26.472,21.528,48,48,48c13.328,0,25.4-5.472,34.104-14.272C85.848,362.12,94.232,368,104,368h8
		v128h352V368h8c13.232,0,24-10.768,24-24V136C496,122.768,485.232,112,472,112z M222.448,23.168
		c0.432-4.088,3.848-7.168,7.96-7.168h115.184c4.112,0,7.52,3.08,7.96,7.168L367.12,152H312V64c0-13.232-10.768-24-24-24
		s-24,10.768-24,24v88h-55.12L222.448,23.168z M296,152h-16V64c0-4.416,3.584-8,8-8s8,3.584,8,8V152z M48,352
		c-17.648,0-32-14.352-32-32V160c0-17.648,14.352-32,32-32s32,14.352,32,32v160C80,337.648,65.648,352,48,352z M448,480H128V368h16
		v96h144v-96h160V480z M160,368h112v80H160V368z M480,344c0,4.416-3.584,8-8,8h-8H288H144h-32h-8c-4.416,0-8-3.584-8-8v-24V160v-24
		c0-4.416,3.584-8,8-8h91.328l-2.528,24H112v16h79.12H264h48h72.88H464v-16h-80.8l-2.528-24H472c4.416,0,8,3.584,8,8V344z"/>
	<path style="fill:#333333;" d="M312,336h40v-40h-40V336z M328,312h8v8h-8V312z"/>
	<path style="fill:#333333;" d="M368,336h40v-40h-40V336z M384,312h8v8h-8V312z"/>
	<path style="fill:#333333;" d="M424,336h40v-40h-40V336z M440,312h8v8h-8V312z"/>
	<path style="fill:#333333;" d="M312,280h40v-40h-40V280z M328,256h8v8h-8V256z"/>
	<path style="fill:#333333;" d="M368,280h40v-40h-40V280z M384,256h8v8h-8V256z"/>
	<path style="fill:#333333;" d="M424,280h40v-40h-40V280z M440,256h8v8h-8V256z"/>
	<path style="fill:#333333;" d="M312,224h40v-40h-40V224z M328,200h8v8h-8V200z"/>
	<path style="fill:#333333;" d="M368,224h40v-40h-40V224z M384,200h8v8h-8V200z"/>
	<path style="fill:#333333;" d="M424,224h40v-40h-40V224z M440,200h8v8h-8V200z"/>
	<rect x="112" y="296" style="fill:#333333;" width="40" height="16"/>
	<rect x="184" y="296" style="fill:#333333;" width="40" height="16"/>
	<rect x="256" y="296" style="fill:#333333;" width="40" height="16"/>
	<rect x="304" y="384" style="fill:#333333;" width="128" height="16"/>
	<rect x="304" y="416" style="fill:#333333;" width="128" height="16"/>
	<rect x="304" y="448" style="fill:#333333;" width="72" height="16"/>
</g>
<g>
</g>
<g>
</g>
<g>
</g>
<g>
</g>
<g>
</g>
<g>
</g>
<g>
</g>
<g>
</g>
<g>
</g>
<g>
</g>
<g>
</g>
<g>
</g>
<g>
</g>
<g>
</g>
<g>
</g>
</svg>
