<?xml version="1.0" encoding="iso-8859-1"?>
<!-- Generator: Adobe Illustrator 19.0.0, SVG Export Plug-In . SVG Version: 6.00 Build 0)  -->
<svg version="1.1" id="Layer_1" xmlns="http://www.w3.org/2000/svg" xmlns:xlink="http://www.w3.org/1999/xlink" x="0px" y="0px"
	 viewBox="0 0 512.555 512.555" style="enable-background:new 0 0 512.555 512.555;" xml:space="preserve">
<g>
	<g>
		<g>
			<path d="M437.333,362.944c-6.4,0-10.667,4.267-10.667,10.667v64c0,17.066-14.934,32-32,32H53.333c-17.066,0-32-14.934-32-32
				V128.278h405.333v74.667c0,6.4,4.267,10.667,10.667,10.667c6.4,0,10.667-4.267,10.667-10.667v-128
				c0-29.867-23.467-53.333-53.333-53.333H53.333C23.467,21.611,0,45.078,0,74.944v362.667c0,29.867,23.467,53.333,53.333,53.333
				h341.333c29.867,0,53.333-23.467,53.333-53.333v-64C448,367.211,443.733,362.944,437.333,362.944z M138.667,64.278
				c6.4,0,10.667,4.267,10.667,10.667c0,6.4-4.267,10.667-10.667,10.667c-6.4,0-10.667-4.267-10.667-10.667
				C128,68.544,132.267,64.278,138.667,64.278z M96,64.278c6.4,0,10.667,4.267,10.667,10.667c0,6.4-4.267,10.667-10.667,10.667
				s-10.667-4.267-10.667-10.667C85.333,68.544,89.6,64.278,96,64.278z M53.333,64.278c6.4,0,10.667,4.267,10.667,10.667
				c0,6.4-4.267,10.667-10.667,10.667c-6.4,0-10.667-4.267-10.667-10.667C42.667,68.544,46.934,64.278,53.333,64.278z"/>
			<path d="M416,256.278c-6.4,0-10.667,4.267-10.667,10.667c0,6.4,4.267,10.667,10.667,10.667s10.667-4.267,10.667-10.667
				C426.667,260.544,422.4,256.278,416,256.278z"/>
			<path d="M460.8,234.944c-6.4-2.133-10.667,2.133-12.8,8.533l-21.333,85.333c-2.133,6.4,2.133,10.667,8.533,12.8h2.133
				c4.267,0,8.533-4.267,10.667-8.533l21.333-85.333C471.467,241.345,467.2,237.078,460.8,234.944z"/>
			<path d="M503.467,234.944c-6.4-2.133-10.667,2.133-12.8,8.533l-21.333,85.333c-2.133,6.4,2.133,10.667,8.533,12.8H480
				c4.267,0,8.533-4.267,10.667-8.533L512,247.744C514.133,241.345,509.867,237.078,503.467,234.944z"/>
			<path d="M416,298.944c-6.4,0-10.667,4.267-10.667,10.667S409.6,320.278,416,320.278s10.667-4.267,10.667-10.667
				S422.4,298.944,416,298.944z"/>
			<path d="M181.333,341.611c6.4,0,10.667-4.267,10.667-10.667v-74.667h10.667c6.4,0,10.667-4.267,10.667-10.667
				s-4.267-10.667-10.667-10.667H160c-6.4,0-10.667,4.267-10.667,10.667S153.6,256.278,160,256.278h10.667v74.667
				C170.667,337.345,174.934,341.611,181.333,341.611z"/>
			<path d="M330.667,234.944c-6.4,0-10.667,4.267-10.667,10.667v85.333c0,6.4,4.267,10.667,10.667,10.667
				c6.4,0,10.667-4.267,10.667-10.667v-32H352c17.066,0,32-14.934,32-32s-14.934-32-32-32H330.667z M362.667,266.944
				c0,6.4-4.267,10.667-10.667,10.667h-10.667v-21.333H352C358.4,256.278,362.667,260.544,362.667,266.944z"/>
			<path d="M266.667,341.611c6.4,0,10.667-4.267,10.667-10.667v-74.667H288c6.4,0,10.667-4.267,10.667-10.667
				S294.4,234.944,288,234.944h-42.667c-6.4,0-10.667,4.267-10.667,10.667s4.267,10.667,10.667,10.667H256v74.667
				C256,337.345,260.267,341.611,266.667,341.611z"/>
			<path d="M117.333,341.611c6.4,0,10.667-4.267,10.667-10.667v-85.333c0-6.4-4.267-10.667-10.667-10.667
				c-6.4,0-10.667,4.267-10.667,10.667v32H64v-32c0-6.4-4.267-10.667-10.667-10.667c-6.4,0-10.667,4.267-10.667,10.667v85.333
				c0,6.4,4.267,10.667,10.667,10.667c6.4,0,10.667-4.267,10.667-10.667v-32h42.667v32
				C106.667,337.345,110.934,341.611,117.333,341.611z"/>
		</g>
	</g>
</g>
<g>
</g>
<g>
</g>
<g>
</g>
<g>
</g>
<g>
</g>
<g>
</g>
<g>
</g>
<g>
</g>
<g>
</g>
<g>
</g>
<g>
</g>
<g>
</g>
<g>
</g>
<g>
</g>
<g>
</g>
</svg>
