<?xml version="1.0" encoding="iso-8859-1"?>
<!-- Generator: Adobe Illustrator 16.0.0, SVG Export Plug-In . SVG Version: 6.00 Build 0)  -->
<!DOCTYPE svg PUBLIC "-//W3C//DTD SVG 1.1//EN" "http://www.w3.org/Graphics/SVG/1.1/DTD/svg11.dtd">
<svg version="1.1" id="Capa_1" xmlns="http://www.w3.org/2000/svg" xmlns:xlink="http://www.w3.org/1999/xlink" x="0px" y="0px"
	 width="516.375px" height="516.375px" viewBox="0 0 516.375 516.375" style="enable-background:new 0 0 516.375 516.375;"
	 xml:space="preserve">
<g>
	<g>
		<rect x="153" y="382.5" width="19.125" height="19.125"/>
		<rect x="133.875" width="19.125" height="38.25"/>
		<rect x="363.375" width="19.125" height="38.25"/>
		<rect x="210.375" width="19.125" height="38.25"/>
		<rect x="286.875" width="19.125" height="38.25"/>
		<rect x="153" y="191.25" width="19.125" height="19.125"/>
		<path d="M401.625,38.25H382.5V76.5h-19.125V38.25H306V76.5h-19.125V38.25H229.5V76.5h-19.125V38.25H153V76.5h-19.125V38.25H114.75
			c-21.038,0-38.25,17.212-38.25,38.25v401.625c0,21.037,17.212,38.25,38.25,38.25h286.875c21.037,0,38.25-17.213,38.25-38.25V76.5
			C439.875,55.462,422.662,38.25,401.625,38.25z M191.25,420.75h-57.375v-57.375h57.375V420.75z M191.25,325.125h-57.375V267.75
			h57.375V325.125z M191.25,229.5h-57.375v-57.375h57.375V229.5z M382.5,401.625h-153V382.5h153V401.625z M382.5,306h-153v-19.125
			h153V306z M382.5,210.375h-153V191.25h153V210.375z"/>
		<rect x="153" y="286.875" width="19.125" height="19.125"/>
	</g>
</g>
<g>
</g>
<g>
</g>
<g>
</g>
<g>
</g>
<g>
</g>
<g>
</g>
<g>
</g>
<g>
</g>
<g>
</g>
<g>
</g>
<g>
</g>
<g>
</g>
<g>
</g>
<g>
</g>
<g>
</g>
</svg>
