<?xml version="1.0" encoding="iso-8859-1"?>
<!-- Generator: Adobe Illustrator 19.0.0, SVG Export Plug-In . SVG Version: 6.00 Build 0)  -->
<svg version="1.1" id="Layer_1" xmlns="http://www.w3.org/2000/svg" xmlns:xlink="http://www.w3.org/1999/xlink" x="0px" y="0px"
	 viewBox="0 0 512 512" style="enable-background:new 0 0 512 512;" xml:space="preserve">
<g>
	<g>
		<path d="M486.639,424.96c-51.2-26.948-90.351-41.899-125.124-47.804l3.78-5.205c1.485-2.039,1.997-4.642,1.374-7.091
			l-7.919-31.676c2.901-4.087,5.632-8.311,8.201-12.646c31.889-10.82,48.051-29.124,50.714-56.175
			c14.507-0.879,26.069-12.843,26.069-27.563v-64c0-14.626-11.418-26.513-25.779-27.537C415.94,95.693,394.129,0,256,0
			C117.862,0,96.051,95.693,94.046,145.263c-14.37,1.024-25.779,12.911-25.779,27.537v64c0,15.292,12.442,27.733,27.733,27.733h12.8
			c4.975,0,9.583-1.425,13.619-3.729c4.873,25.66,15.616,50.927,30.822,72.38l-7.919,31.676c-0.614,2.449-0.111,5.052,1.374,7.091
			l3.789,5.205c-34.773,5.905-73.924,20.855-125.133,47.804C9.711,433.195,0,449.297,0,466.987v36.48C0,508.177,3.814,512,8.533,512
			h204.8h0.009h3.191h0.009l78.541-0.077c0.136,0.009,0.256,0.077,0.393,0.077h207.991c4.71,0,8.533-3.823,8.533-8.533v-36.48
			C512,449.297,502.281,433.195,486.639,424.96z M378.726,296.926c4.847-11.708,8.516-23.868,10.846-36.122
			c3.32,1.894,7.031,3.089,11.025,3.465C399.121,276.48,393.694,287.932,378.726,296.926z M121.463,148.275
			c-3.157-1.638-6.639-2.662-10.351-2.978C113.212,93.858,136.388,17.067,256,17.067c119.603,0,142.78,76.792,144.879,128.23
			c-3.712,0.316-7.194,1.34-10.351,2.978C379.793,83.627,323.635,34.133,256,34.133C188.356,34.133,132.198,83.627,121.463,148.275z
			 M162.842,365.133l3.831-15.309c0.034,0.043,0.068,0.068,0.102,0.102c20.617,22.409,46.831,38.195,76.39,41.788
			c0.017,0,0.034,0.009,0.06,0.009l-3.866,8.687l-19.294,43.409L162.842,365.133z M256,405.018l21.001,47.249H235L256,405.018z
			 M223.744,494.925l5.111-25.591h54.281l5.12,25.532L223.744,494.925z M291.925,443.819l-19.294-43.409l-3.857-8.687
			c0.017,0,0.034-0.009,0.051-0.009c29.559-3.592,55.782-19.379,76.39-41.788c0.034-0.034,0.077-0.06,0.102-0.102l3.84,15.309
			L291.925,443.819z M264.533,315.733c-4.719,0-8.533,3.823-8.533,8.533c0,4.71,3.814,8.533,8.533,8.533
			c31.181,0,57.028-1.997,78.234-6.042c-0.324,0.427-0.674,0.828-1.007,1.254c-0.299,0.282-0.691,0.469-0.947,0.802
			c-2.927,3.746-5.965,7.287-9.088,10.607c-0.026,0.026-0.051,0.051-0.077,0.077c-2.057,2.185-4.215,4.13-6.349,6.127
			c-20.864,18.816-45.645,29.841-69.299,29.841c-23.663,0-48.444-11.025-69.299-29.833c-2.142-2.005-4.301-3.951-6.357-6.144
			c-0.026-0.017-0.043-0.043-0.068-0.06c-3.123-3.328-6.161-6.869-9.097-10.615c-0.256-0.333-0.64-0.521-0.947-0.802
			c-20.105-25.37-33.698-59.187-33.698-97.613v-57.6v-2.133C136.533,104.789,190.123,51.2,256,51.2
			c65.869,0,119.467,53.589,119.467,119.467v2.133v57.6c0,28.339-7.467,54.127-19.379,75.938
			C335.71,312.218,306.449,315.733,264.533,315.733z"/>
	</g>
</g>
<g>
</g>
<g>
</g>
<g>
</g>
<g>
</g>
<g>
</g>
<g>
</g>
<g>
</g>
<g>
</g>
<g>
</g>
<g>
</g>
<g>
</g>
<g>
</g>
<g>
</g>
<g>
</g>
<g>
</g>
</svg>
