<?xml version="1.0" encoding="iso-8859-1"?>
<!-- Generator: Adobe Illustrator 19.0.0, SVG Export Plug-In . SVG Version: 6.00 Build 0)  -->
<svg version="1.1" id="Capa_1" xmlns="http://www.w3.org/2000/svg" xmlns:xlink="http://www.w3.org/1999/xlink" x="0px" y="0px"
	 viewBox="0 0 64.482 64.482" style="enable-background:new 0 0 64.482 64.482;" xml:space="preserve">
<g>
	<path d="M53.396,0H11.085C4.973,0,0,4.973,0,11.086v42.312c0,6.111,4.973,11.084,11.085,11.084h42.311
		c6.113,0,11.086-4.973,11.086-11.084V11.086C64.482,4.973,59.509,0,53.396,0z M58.482,53.397c0,2.804-2.281,5.084-5.086,5.084
		H11.085C8.281,58.481,6,56.201,6,53.397V11.086C6,8.282,8.281,6,11.085,6h42.311c2.805,0,5.086,2.282,5.086,5.086V53.397z"/>
	<polygon points="36.492,22.775 32.25,18.533 32.247,18.534 32.245,18.533 28.003,22.775 28.005,22.777 18.471,32.311 
		22.713,36.554 29.186,30.081 29.186,45.948 35.185,45.948 35.185,29.956 41.783,36.554 46.025,32.311 36.49,22.777 	"/>
</g>
<g>
</g>
<g>
</g>
<g>
</g>
<g>
</g>
<g>
</g>
<g>
</g>
<g>
</g>
<g>
</g>
<g>
</g>
<g>
</g>
<g>
</g>
<g>
</g>
<g>
</g>
<g>
</g>
<g>
</g>
</svg>
