<?xml version="1.0" encoding="iso-8859-1"?>
<!-- Generator: Adobe Illustrator 19.0.0, SVG Export Plug-In . SVG Version: 6.00 Build 0)  -->
<svg version="1.1" id="Capa_1" xmlns="http://www.w3.org/2000/svg" xmlns:xlink="http://www.w3.org/1999/xlink" x="0px" y="0px"
	 viewBox="0 0 490 490" style="enable-background:new 0 0 490 490;" xml:space="preserve">
<g>
	<g>
		<g>
			<circle cx="367.5" cy="85.6" r="51.3"/>
			<path d="M367.5,160.6c-67.7,0-122.5,54.8-122.5,122.5h245C490,215.4,435.2,160.6,367.5,160.6z"/>
			<path d="M89.8,407.6H13.6c-7.8,0-13.6,6.2-13.6,13.6V490h103.4v-68.8C103.4,413.8,97.2,407.6,89.8,407.6z"/>
			<circle cx="51.7" cy="348.8" r="30.7"/>
			<path d="M218.6,407.6h-75.8c-7.8,0-13.6,6.2-13.6,13.6V490h103.4v-68.8C232.2,413.8,226.3,407.6,218.6,407.6z"/>
			<circle cx="180.4" cy="348.8" r="30.7"/>
			<path d="M347.3,407.6h-75.8c-7.8,0-13.6,6.2-13.6,13.6V490h103.4v-68.8C361.3,413.8,355.1,407.6,347.3,407.6z"/>
			<circle cx="309.6" cy="348.8" r="30.7"/>
			<path d="M476.4,407.6h-75.8c-7.8,0-13.6,6.2-13.6,13.6V490h103v-68.8C490,413.8,483.8,407.6,476.4,407.6z"/>
			<circle cx="438.3" cy="348.8" r="30.7"/>
			<path d="M194.4,180.4V131h31.1V0H0v131.1h142.7L194.4,180.4z M173.4,55.6h5.1c5.4,0,10.1,4.3,10.1,10.1s-4.3,10.1-10.1,10.1h-5.1
				c-5.4,0-10.1-4.3-10.1-10.1S168,55.6,173.4,55.6z M52.1,75.4H47c-5.4,0-10.1-4.3-10.1-10.1c0-5.8,4.3-10.1,10.1-10.1h5.1
				c5.4,0,10.1,4.3,10.1,10.1C62.2,71.2,57.6,75.4,52.1,75.4z M115.1,75.4H110c-5.4,0-10.1-4.3-10.1-10.1c0-5.8,4.3-10.1,10.1-10.1
				h5.1c5.4,0,10.1,4.3,10.1,10.1C125.2,71.2,120.6,75.4,115.1,75.4z"/>
		</g>
	</g>
</g>
<g>
</g>
<g>
</g>
<g>
</g>
<g>
</g>
<g>
</g>
<g>
</g>
<g>
</g>
<g>
</g>
<g>
</g>
<g>
</g>
<g>
</g>
<g>
</g>
<g>
</g>
<g>
</g>
<g>
</g>
</svg>
