<?xml version="1.0" encoding="iso-8859-1"?>
<!-- Generator: Adobe Illustrator 17.1.0, SVG Export Plug-In . SVG Version: 6.00 Build 0)  -->
<!DOCTYPE svg PUBLIC "-//W3C//DTD SVG 1.1//EN" "http://www.w3.org/Graphics/SVG/1.1/DTD/svg11.dtd">
<svg xmlns="http://www.w3.org/2000/svg" xmlns:xlink="http://www.w3.org/1999/xlink" version="1.1" id="Capa_1" x="0px" y="0px" viewBox="0 0 294 294" style="enable-background:new 0 0 294 294;" xml:space="preserve" width="512px" height="512px">
<path d="M294,147C294,65.944,228.056,0,147,0h0h0h0C65.944,0,0,65.944,0,147s65.944,147,147,147h0h0h0  C228.056,294,294,228.056,294,147z M161.667,263.041V213c0-8.284-6.716-15-15-15s-15,6.716-15,15v50.042  c-52-6.754-93.954-48.498-100.709-101.042H81c8.284,0,15-6.716,15-15s-6.716-15-15-15H30.958  c6.754-52.543,48.709-94.288,100.709-101.042V81c0,8.284,6.716,15,15,15s15-6.716,15-15V30.959  c53,6.754,94.62,48.498,101.374,101.041H213c-8.284,0-15,6.716-15,15s6.716,15,15,15h50.042  C256.287,214.543,214.667,256.287,161.667,263.041z" fill="#FFFFFF"/>
<g>
</g>
<g>
</g>
<g>
</g>
<g>
</g>
<g>
</g>
<g>
</g>
<g>
</g>
<g>
</g>
<g>
</g>
<g>
</g>
<g>
</g>
<g>
</g>
<g>
</g>
<g>
</g>
<g>
</g>
</svg>
