<?xml version="1.0" encoding="iso-8859-1"?>
<!-- Generator: Adobe Illustrator 16.0.0, SVG Export Plug-In . SVG Version: 6.00 Build 0)  -->
<!DOCTYPE svg PUBLIC "-//W3C//DTD SVG 1.1//EN" "http://www.w3.org/Graphics/SVG/1.1/DTD/svg11.dtd">
<svg xmlns="http://www.w3.org/2000/svg" xmlns:xlink="http://www.w3.org/1999/xlink" version="1.1" id="Capa_1" x="0px" y="0px" width="512px" height="512px" viewBox="0 0 485.215 485.215" style="enable-background:new 0 0 485.215 485.215;" xml:space="preserve">
<g>
	<path d="M90.978,212.283l121.304,121.303v-60.654c0,0,121.3-30.324,181.953,60.654c0-100.483-81.473-181.956-181.953-181.956   V90.979L90.978,212.283z M0,242.607c0,133.976,108.628,242.606,242.606,242.606c134.006,0,242.608-108.631,242.608-242.606   c0-133.978-108.603-242.606-242.608-242.606C108.628,0.001,0,108.63,0,242.607z M30.326,242.607   c0-117.038,95.241-212.279,212.28-212.279c117.068,0,212.277,95.241,212.277,212.279c0,117.039-95.209,212.28-212.277,212.28   C125.567,454.888,30.326,359.646,30.326,242.607z" fill="#FFFFFF"/>
</g>
<g>
</g>
<g>
</g>
<g>
</g>
<g>
</g>
<g>
</g>
<g>
</g>
<g>
</g>
<g>
</g>
<g>
</g>
<g>
</g>
<g>
</g>
<g>
</g>
<g>
</g>
<g>
</g>
<g>
</g>
</svg>
